<svg width="242" height="41" viewBox="0 0 242 41" fill="none" xmlns="http://www.w3.org/2000/svg">
<g clip-path="url(#clip0_227_493)">
<path d="M19.8454 0C8.88531 0 0 9.1784 0 20.5C0 31.8216 8.88531 41 19.8454 41C30.8055 41 39.6908 31.8237 39.6908 20.5C39.6908 9.17634 30.8075 0 19.8454 0ZM14.8554 38.795L12.2861 37.829L24.8384 2.205L27.4077 3.17104L14.8554 38.795Z" fill="white"/>
<path d="M54.1372 1.54492H62.1192C73.4103 1.54492 79.494 8.88496 79.494 20.3477C79.494 37.8424 68.8351 39.4511 62.8002 39.4511H54.1372V1.54492ZM64.0654 30.3016C68.5918 30.2511 69.3704 24.4199 69.3704 20.8502C69.3704 16.7307 68.5918 10.9962 64.0654 10.9962V30.3016Z" fill="white"/>
<path d="M94.9588 0.892578C105.029 0.892578 108.976 11.2492 108.976 20.4997C108.976 29.7502 105.034 40.1067 94.9588 40.1067C84.884 40.1067 80.9429 29.7502 80.9429 20.4997C80.9429 11.2492 84.885 0.892578 94.9588 0.892578ZM94.9588 30.5535C98.7065 30.5535 98.8471 22.8612 98.8471 20.4986C98.8471 18.1361 98.7015 10.4438 94.9588 10.4438C91.216 10.4438 91.0655 18.1361 91.0655 20.4986C91.0655 22.8612 91.212 30.5545 94.9588 30.5545V30.5535Z" fill="white"/>
<path d="M114.815 39.4532V10.7975H109.364V1.54492H130.438V10.7954H124.744V39.4532H114.815Z" fill="white"/>
<path d="M131.597 26.6832C132.96 28.7955 135.344 30.9057 137.878 30.9057C139.241 30.9057 140.798 30.0509 140.798 28.3918C140.818 27.6094 140.539 26.8505 140.019 26.2805C139.582 25.7274 138.997 25.2743 138.364 24.8222C136.418 23.2639 134.714 21.8056 133.449 19.9961C132.232 18.237 131.455 16.1247 131.455 13.3595C131.455 8.93609 134.181 0.891602 142.649 0.891602C145.034 0.891602 147.614 1.64548 149.706 2.80205V14.3152C148.538 12.4048 146.153 10.243 143.866 10.243C142.698 10.243 141.287 11.0978 141.287 12.5551C141.287 13.3595 141.724 14.0639 142.26 14.6674C142.795 15.2709 143.525 15.7725 144.06 16.2257C146.154 17.7334 147.808 19.1413 148.928 20.8509C150.096 22.5605 150.728 24.5709 150.728 27.436C150.728 34.4753 145.959 40.1037 139.048 40.1037C136.491 40.0917 133.961 39.5623 131.602 38.5455L131.597 26.6832Z" fill="white"/>
<path d="M154.115 32.314L160.305 1.54492L165.449 1.55316L158.981 32.3119C158.787 33.7702 158.934 35.1276 160.588 35.1276C161.513 35.1276 162.972 34.5241 164.384 33.4685L163.557 38.8476C161.756 39.6025 160.297 39.8538 159.128 39.8538C154.943 39.8569 153.339 37.5427 154.115 32.314Z" fill="white"/>
<path d="M184.392 39.4532L183.661 34.5766H176.994L176.167 39.4532H165.946L174.755 1.54492H186.873L194.661 39.4511L184.392 39.4532ZM182.498 26.5332L181.427 17.7348C181.135 15.3722 180.94 12.9592 180.697 10.5966H180.597C180.305 12.9592 180.062 15.3722 179.673 17.7348L178.31 26.5332H182.498Z" fill="white"/>
<path d="M195.518 26.6832C196.88 28.7955 199.265 30.9057 201.799 30.9057C203.162 30.9057 204.719 30.0509 204.719 28.3918C204.739 27.6094 204.459 26.8505 203.94 26.2805C203.503 25.7274 202.918 25.2743 202.285 24.8222C200.339 23.2639 198.635 21.8056 197.37 19.9961C196.153 18.237 195.376 16.1247 195.376 13.3595C195.376 8.93609 198.102 0.891602 206.57 0.891602C208.955 0.891602 211.534 1.64548 213.627 2.80205V14.3152C212.459 12.4048 210.074 10.243 207.787 10.243C206.619 10.243 205.207 11.0978 205.207 12.5551C205.207 13.3595 205.645 14.0639 206.181 14.6674C206.716 15.2709 207.446 15.7725 207.981 16.2257C210.075 17.7334 211.729 19.1413 212.848 20.8509C214.017 22.5605 214.649 24.5709 214.649 27.436C214.649 34.4753 209.879 40.1037 202.969 40.1037C200.412 40.0917 197.882 39.5623 195.523 38.5455L195.518 26.6832Z" fill="white"/>
<path d="M232.072 39.4532V24.0697H227.351V39.4532H217.423V1.54492H227.351V15.1189H232.072V1.54492H242V39.4532H232.072Z" fill="white"/>
</g>
<defs>
<clipPath id="clip0_227_493">
<rect width="242" height="41" fill="white"/>
</clipPath>
</defs>
</svg>
