<svg width="202" height="35" viewBox="0 0 202 35" fill="none" xmlns="http://www.w3.org/2000/svg">
<g clip-path="url(#clip0_489_14)">
<path d="M16.5652 0C7.41666 0 0 7.83522 0 17.5C0 27.1648 7.41666 35 16.5652 35C25.7136 35 33.1303 27.1665 33.1303 17.5C33.1303 7.83346 25.7153 0 16.5652 0ZM12.3999 33.1177L10.2553 32.293L20.7329 1.88232L22.8775 2.70698L12.3999 33.1177Z" fill="black"/>
<path d="M45.189 1.31879H51.8516C61.2764 1.31879 66.3546 7.58468 66.3546 17.3699C66.3546 32.3045 57.4574 33.6777 52.42 33.6777H45.189V1.31879ZM53.4761 25.8671C57.2544 25.8241 57.9043 20.8462 57.9043 17.7989C57.9043 14.2822 57.2544 9.38699 53.4761 9.38699V25.8671Z" fill="black"/>
<path d="M79.2632 0.762268C87.6685 0.762268 90.9632 9.60326 90.9632 17.5C90.9632 25.3968 87.6727 34.2378 79.2632 34.2378C70.8537 34.2378 67.564 25.3968 67.564 17.5C67.564 9.60326 70.8545 0.762268 79.2632 0.762268ZM79.2632 26.0825C82.3915 26.0825 82.5088 19.516 82.5088 17.4991C82.5088 15.4823 82.3873 8.91575 79.2632 8.91575C76.1391 8.91575 76.0134 15.4823 76.0134 17.4991C76.0134 19.516 76.1357 26.0834 79.2632 26.0834V26.0825Z" fill="black"/>
<path d="M95.8373 33.6795V9.2173H91.2876V1.31879H108.878V9.21555H104.125V33.6795H95.8373Z" fill="black"/>
<path d="M109.845 22.7786C110.983 24.5817 112.974 26.3832 115.088 26.3832C116.226 26.3832 117.526 25.6535 117.526 24.2371C117.543 23.5692 117.309 22.9214 116.876 22.4348C116.51 21.9627 116.023 21.5758 115.494 21.1899C113.87 19.8597 112.448 18.6148 111.391 17.0701C110.375 15.5684 109.727 13.7652 109.727 11.4047C109.727 7.62859 112.002 0.761353 119.071 0.761353C121.062 0.761353 123.215 1.40491 124.962 2.39222V12.2205C123.986 10.5897 121.996 8.74427 120.086 8.74427C119.112 8.74427 117.933 9.47398 117.933 10.718C117.933 11.4047 118.299 12.006 118.746 12.5212C119.193 13.0364 119.802 13.4646 120.249 13.8514C121.996 15.1385 123.377 16.3403 124.312 17.7998C125.287 19.2592 125.815 20.9754 125.815 23.4212C125.815 29.4304 121.833 34.2351 116.065 34.2351C113.931 34.2248 111.819 33.7729 109.849 32.9049L109.845 22.7786Z" fill="black"/>
<path d="M128.641 27.5851L133.809 1.31879L138.102 1.32582L132.704 27.5833C132.541 28.8282 132.664 29.987 134.044 29.987C134.816 29.987 136.035 29.4718 137.213 28.5706L136.523 33.1625C135.02 33.807 133.801 34.0215 132.826 34.0215C129.332 34.0241 127.994 32.0486 128.641 27.5851Z" fill="black"/>
<path d="M153.914 33.6795L153.304 29.5166H147.739L147.048 33.6795H138.517L145.87 1.31879H155.985L162.486 33.6777L153.914 33.6795ZM152.333 22.6502L151.439 15.1394C151.195 13.1226 151.033 11.0627 150.83 9.04586H150.746C150.503 11.0627 150.3 13.1226 149.975 15.1394L148.837 22.6502H152.333Z" fill="black"/>
<path d="M163.201 22.7786C164.338 24.5817 166.329 26.3832 168.444 26.3832C169.581 26.3832 170.881 25.6535 170.881 24.2371C170.898 23.5692 170.665 22.9214 170.231 22.4348C169.866 21.9627 169.378 21.5758 168.85 21.1899C167.225 19.8597 165.803 18.6148 164.747 17.0701C163.731 15.5684 163.083 13.7652 163.083 11.4047C163.083 7.62859 165.358 0.761353 172.427 0.761353C174.417 0.761353 176.57 1.40491 178.317 2.39222V12.2205C177.342 10.5897 175.351 8.74427 173.442 8.74427C172.467 8.74427 171.289 9.47398 171.289 10.718C171.289 11.4047 171.654 12.006 172.101 12.5212C172.548 13.0364 173.157 13.4646 173.604 13.8514C175.352 15.1385 176.732 16.3403 177.667 17.7998C178.642 19.2592 179.17 20.9754 179.17 23.4212C179.17 29.4304 175.189 34.2351 169.421 34.2351C167.286 34.2248 165.175 33.7729 163.205 32.9049L163.201 22.7786Z" fill="black"/>
<path d="M193.713 33.6795V20.5472H189.773V33.6795H181.485V1.31879H189.773V12.9063H193.713V1.31879H202V33.6795H193.713Z" fill="black"/>
</g>
<defs>
<clipPath id="clip0_489_14">
<rect width="202" height="35" fill="white"/>
</clipPath>
</defs>
</svg>
